<svg width="32" height="32" viewBox="0 0 32 32" fill="none" xmlns="http://www.w3.org/2000/svg">
<g clip-path="url(#clip0_188_576)">
<path d="M2.81436 6.14901L3.32311 7.57955C3.34491 7.64081 3.38803 7.68936 3.44245 7.71385L4.7134 8.28648C4.89296 8.36741 4.89296 8.65348 4.7134 8.73434L3.44245 9.30697C3.38803 9.33146 3.34491 9.38002 3.32311 9.44127L2.81436 10.8718C2.74248 11.0739 2.48829 11.0739 2.41646 10.8718L1.90771 9.44127C1.88591 9.38002 1.84279 9.33146 1.78838 9.30697L0.51742 8.73434C0.337862 8.65342 0.337862 8.36735 0.51742 8.28648L1.78838 7.71385C1.84279 7.68936 1.88591 7.64081 1.90771 7.57955L2.41646 6.14901C2.48829 5.94691 2.74248 5.94691 2.81436 6.14901Z" fill="white"/>
<path d="M9.13077 0.158962L9.50815 1.22007C9.52433 1.2655 9.55628 1.30148 9.59665 1.31968L10.5394 1.74445C10.6726 1.80448 10.6726 2.01666 10.5394 2.07669L9.59665 2.50146C9.55628 2.51966 9.52427 2.55564 9.50815 2.60108L9.13077 3.66224C9.07746 3.81218 8.88892 3.81218 8.8356 3.66224L8.45823 2.60108C8.4421 2.55564 8.4101 2.51966 8.36973 2.50146L7.42693 2.07669C7.29373 2.01666 7.29373 1.80448 7.42693 1.74445L8.36973 1.31968C8.4101 1.30148 8.4421 1.2655 8.45823 1.22007L8.8356 0.158962C8.88892 0.00902448 9.07746 0.00902448 9.13077 0.158962Z" fill="white"/>
<path d="M30.8714 5.24499C31.0138 4.64803 30.6452 4.04872 30.0483 3.90638C29.4513 3.76404 28.852 4.13258 28.7097 4.72954C28.5673 5.32649 28.9359 5.92581 29.5328 6.06815C30.1298 6.21049 30.7291 5.84194 30.8714 5.24499Z" fill="white"/>
<path d="M3.75534 3.58045C4.01999 3.58045 4.23453 3.36591 4.23453 3.10126C4.23453 2.83661 4.01999 2.62207 3.75534 2.62207C3.49069 2.62207 3.27615 2.83661 3.27615 3.10126C3.27615 3.36591 3.49069 3.58045 3.75534 3.58045Z" fill="white"/>
<path d="M27.4014 9.44756C26.8317 7.66175 25.8228 6.1137 24.477 4.92104L25.1147 3.81645C25.4546 3.22782 25.5449 2.54214 25.3689 1.88559C25.193 1.22904 24.772 0.680349 24.1834 0.340532C22.9682 -0.361028 21.409 0.0568422 20.7074 1.27191L19.9273 2.62318C18.1074 2.23475 16.1991 2.36337 14.375 3.01931C11.7546 3.96156 9.62144 5.87899 8.3682 8.41852C8.36319 8.42872 8.35189 8.45223 8.33473 8.48796C7.83991 9.51993 6.8323 11.5422 5.64337 13.492C4.61323 15.1813 3.82544 16.1922 3.24206 16.796C2.28002 16.5353 1.23394 16.982 0.776492 17.909L0.752368 17.9579C0.500681 18.4679 0.462693 19.0453 0.645366 19.5839C0.828038 20.1224 1.20945 20.5576 1.71942 20.8093L11.3592 25.5663C11.0924 26.0969 10.9416 26.6954 10.9416 27.3286C10.9416 29.5019 12.7097 31.27 14.883 31.27C16.4379 31.27 17.7847 30.3644 18.4255 29.0534L20.9808 30.3143C21.2829 30.4634 21.6035 30.5339 21.9196 30.5339C22.705 30.5339 23.4617 30.098 23.8321 29.3474L23.8564 29.2981C24.2818 28.4362 24.0677 27.4228 23.3985 26.7985C23.5208 25.9072 23.8611 24.5334 24.6525 22.4257C25.6232 19.8406 26.759 17.5222 26.7703 17.4994C28.0235 14.96 28.2476 12.1004 27.4014 9.44756ZM21.7802 1.89115C21.9546 1.58907 22.2362 1.37299 22.5731 1.28272C22.6856 1.25255 22.7998 1.23765 22.9133 1.23765C23.1395 1.23765 23.3629 1.29702 23.5641 1.41318C23.8661 1.58761 24.0822 1.86916 24.1725 2.20611C24.2628 2.54305 24.2164 2.89496 24.042 3.19704L23.4906 4.15218C23.1033 3.88772 22.6955 3.64837 22.268 3.43742C21.9047 3.25817 21.5338 3.10274 21.1573 2.97002L21.7802 1.89115ZM14.883 30.0314C13.3927 30.0314 12.1803 28.819 12.1803 27.3287C12.1803 26.8921 12.2847 26.4796 12.4695 26.1143L17.3141 28.505C16.8762 29.4074 15.9517 30.0314 14.883 30.0314ZM22.7456 28.7498L22.7212 28.7992C22.5041 29.2394 21.9692 29.4209 21.5289 29.2035L2.26756 19.6985C2.05429 19.5933 1.89476 19.4113 1.81842 19.1861C1.74201 18.9609 1.75789 18.7194 1.86331 18.5059L1.88743 18.4569C2.10473 18.0167 2.63956 17.8352 3.07984 18.0526L22.3412 27.5575C22.7813 27.7748 22.9628 28.3098 22.7456 28.7498ZM25.6595 16.9513C25.648 16.9745 24.4854 19.3471 23.4931 21.9896C22.8154 23.7943 22.4371 25.13 22.2504 26.1316L4.42885 17.337C5.05706 16.6276 5.8051 15.6061 6.70093 14.1369C7.91814 12.1409 8.94681 10.0764 9.45172 9.02352C9.4657 8.99432 9.47492 8.97509 9.47908 8.96666C10.5896 6.71626 12.4772 5.01802 14.7941 4.18491C17.103 3.35461 19.5626 3.4836 21.7198 4.54818C23.8769 5.61264 25.4755 7.48628 26.2212 9.8239C26.9695 12.1697 26.77 14.7009 25.6595 16.9513Z" fill="white"/>
<path d="M12.4146 9.04513C12.2777 9.04513 12.1401 9.00006 12.0254 8.90729C11.7595 8.69212 11.7183 8.30216 11.9334 8.03625C12.5136 7.31905 13.1989 6.7 13.9702 6.19632C14.2566 6.00925 14.6405 6.08987 14.8274 6.37631C15.0144 6.66275 14.9339 7.04648 14.6474 7.23348C13.9844 7.66644 13.3952 8.19864 12.8964 8.81525C12.7741 8.96653 12.5952 9.04513 12.4146 9.04513Z" fill="white"/>
<path d="M16.1953 6.42775C15.9348 6.42775 15.6925 6.26212 15.6069 6.00114C15.5003 5.67611 15.6775 5.32627 16.0025 5.2197C16.2378 5.14256 16.4798 5.07489 16.7217 5.01852C17.0548 4.94083 17.3879 5.14794 17.4654 5.4811C17.5431 5.8142 17.336 6.14717 17.0029 6.22486C16.7962 6.27305 16.5894 6.33082 16.3884 6.39672C16.3243 6.41773 16.2592 6.42775 16.1953 6.42775Z" fill="white"/>
</g>
<defs>
<clipPath id="clip0_188_576">
<rect width="31.27" height="31.27" fill="white"/>
</clipPath>
</defs>
</svg>
