<svg width="18" height="20" viewBox="0 0 18 20" fill="none" xmlns="http://www.w3.org/2000/svg">
<path d="M0.875 4.375H2.125V17.175C2.12665 17.758 2.35896 18.3166 2.77119 18.7288C3.18341 19.141 3.74203 19.3734 4.325 19.375H13.7C14.2786 19.3668 14.8309 19.1316 15.2377 18.7201C15.6445 18.3086 15.8734 17.7537 15.875 17.175V4.375H17.125C17.2908 4.375 17.4497 4.30915 17.5669 4.19194C17.6842 4.07473 17.75 3.91576 17.75 3.75C17.75 3.58424 17.6842 3.42527 17.5669 3.30806C17.4497 3.19085 17.2908 3.125 17.125 3.125H0.875C0.70924 3.125 0.550268 3.19085 0.433058 3.30806C0.315848 3.42527 0.25 3.58424 0.25 3.75C0.25 3.91576 0.315848 4.07473 0.433058 4.19194C0.550268 4.30915 0.70924 4.375 0.875 4.375ZM14.625 4.375V17.175C14.625 17.427 14.5249 17.6686 14.3468 17.8468C14.1686 18.0249 13.927 18.125 13.675 18.125H4.3C4.0524 18.1185 3.81714 18.0155 3.64435 17.8381C3.47156 17.6606 3.37491 17.4227 3.375 17.175V4.375H14.625Z" fill="#EF0000"/>
<path d="M6.5 1.875H11.5C11.6658 1.875 11.8247 1.80915 11.9419 1.69194C12.0592 1.57473 12.125 1.41576 12.125 1.25C12.125 1.08424 12.0592 0.925268 11.9419 0.808058C11.8247 0.690848 11.6658 0.625 11.5 0.625H6.5C6.33424 0.625 6.17527 0.690848 6.05806 0.808058C5.94085 0.925268 5.875 1.08424 5.875 1.25C5.875 1.41576 5.94085 1.57473 6.05806 1.69194C6.17527 1.80915 6.33424 1.875 6.5 1.875Z" fill="#EF0000"/>
<path d="M6.92578 15.625C7.09154 15.625 7.25051 15.5592 7.36772 15.4419C7.48493 15.3247 7.55078 15.1658 7.55078 15V7.5C7.55078 7.33424 7.48493 7.17527 7.36772 7.05806C7.25051 6.94085 7.09154 6.875 6.92578 6.875C6.76002 6.875 6.60105 6.94085 6.48384 7.05806C6.36663 7.17527 6.30078 7.33424 6.30078 7.5V15C6.30078 15.1658 6.36663 15.3247 6.48384 15.4419C6.60105 15.5592 6.76002 15.625 6.92578 15.625Z" fill="#EF0000"/>
<path d="M11.0742 15.625C11.24 15.625 11.399 15.5592 11.5162 15.4419C11.6334 15.3247 11.6992 15.1658 11.6992 15V7.5C11.6992 7.33424 11.6334 7.17527 11.5162 7.05806C11.399 6.94085 11.24 6.875 11.0742 6.875C10.9085 6.875 10.7495 6.94085 10.6323 7.05806C10.5151 7.17527 10.4492 7.33424 10.4492 7.5V15C10.4492 15.1658 10.5151 15.3247 10.6323 15.4419C10.7495 15.5592 10.9085 15.625 11.0742 15.625Z" fill="#EF0000"/>
</svg>
