<svg width="21" height="20" viewBox="0 0 21 20" fill="none" xmlns="http://www.w3.org/2000/svg">
<path d="M3.97062 13.6242C3.81062 13.6242 3.65094 13.5633 3.52875 13.4411C3.28469 13.197 3.28469 12.8014 3.52875 12.5573L13.2956 2.79047C13.5394 2.54641 13.9353 2.54641 14.1794 2.79047C14.4234 3.03453 14.4234 3.43016 14.1794 3.67422L4.4125 13.4411C4.29063 13.563 4.13062 13.6242 3.97062 13.6242Z" fill="white"/>
<path d="M3.00551 18.1241C2.96207 18.1241 2.91801 18.1194 2.87394 18.1101C2.53644 18.0375 2.32144 17.7054 2.39394 17.3679L3.35957 12.8669C3.43207 12.5294 3.76582 12.315 4.10175 12.3869C4.43925 12.4594 4.65425 12.7916 4.58175 13.1291L3.61613 17.63C3.55332 17.9235 3.29394 18.1241 3.00551 18.1241Z" fill="white"/>
<path d="M7.50578 17.1591C7.34578 17.1591 7.18609 17.0981 7.06391 16.9759C6.81984 16.7319 6.81984 16.3362 7.06391 16.0922L16.8308 6.32562C17.0745 6.08156 17.4705 6.08156 17.7145 6.32562C17.9586 6.56969 17.9586 6.96531 17.7145 7.20937L7.94797 16.9759C7.82578 17.0981 7.66578 17.1591 7.50578 17.1591Z" fill="white"/>
<path d="M3.0035 18.1258C2.71506 18.1258 2.456 17.9252 2.39288 17.6317C2.32069 17.2942 2.53538 16.962 2.87288 16.8895L7.37381 15.9239C7.71163 15.8524 8.04381 16.0667 8.116 16.4039C8.18819 16.7414 7.9735 17.0736 7.636 17.1461L3.13506 18.1117C3.091 18.1214 3.04694 18.1258 3.0035 18.1258Z" fill="white"/>
<path d="M15.505 9.16024C15.345 9.16024 15.185 9.0993 15.0631 8.97712L11.5278 5.4418C11.2837 5.19774 11.2837 4.80211 11.5278 4.55805C11.7715 4.31398 12.1678 4.31398 12.4115 4.55805L15.9468 8.09337C16.1909 8.33743 16.1909 8.73305 15.9468 8.97712C15.825 9.0993 15.665 9.16024 15.505 9.16024Z" fill="white"/>
<path d="M17.2722 7.39289C17.1122 7.39289 16.9522 7.33195 16.83 7.20977C16.5859 6.9657 16.5859 6.57008 16.83 6.3257C17.1778 5.97789 17.3694 5.50695 17.3694 5.00008C17.3694 4.4932 17.1778 4.02227 16.83 3.67445C16.4819 3.32633 16.0109 3.13477 15.5041 3.13477C14.9972 3.13477 14.5262 3.32633 14.1784 3.67445C13.9347 3.91852 13.5391 3.91883 13.2944 3.67445C13.0503 3.43039 13.0503 3.03477 13.2944 2.79039C13.8781 2.20633 14.6628 1.88477 15.5041 1.88477C16.345 1.88477 17.13 2.20633 17.7137 2.79039C18.2978 3.37414 18.6194 4.15883 18.6194 5.00008C18.6194 5.84133 18.2978 6.62602 17.7137 7.20977C17.5922 7.33164 17.4322 7.39289 17.2722 7.39289Z" fill="white"/>
</svg>
