<svg width="152" height="28" viewBox="0 0 152 28" fill="none" xmlns="http://www.w3.org/2000/svg">
<path d="M13.8608 18.4032L20.3195 14.5545V16.678L12.1355 21.3229V10.3077L24.0797 3.31818V16.1029C24.0797 16.1029 23.7999 17.8921 23.3277 18.9341C22.8649 19.9553 22.4638 20.4708 21.7351 21.3229C20.7632 22.4593 20.003 22.8915 18.8154 23.8002C16.3706 25.6709 12.0913 27.9143 12.0913 27.9143V25.8352C12.0913 25.8352 15.6753 23.8129 17.7537 22.2077C18.7919 21.4059 19.4852 21.0522 20.3195 20.04C20.8681 19.3744 21.1632 18.9701 21.5139 18.182C21.8565 17.4124 22.089 16.1029 22.089 16.1029V6.72448L13.8608 11.5906V18.4032Z" fill="#FE5C36"/>
<path d="M12.0909 27.9132V25.834L7.04777 22.7816C7.04777 22.7816 5.09374 21.565 4.12809 20.4812C3.53491 19.8155 3.24471 19.3967 2.80095 18.6232C2.41244 17.9461 2.15474 17.5656 1.96044 16.8095C1.69385 15.7721 1.96044 14.0668 1.96044 14.0668L22.0443 2.2553L19.9652 1.14935L0.146693 12.8281C0.146693 12.8281 -0.183367 15.2901 0.146693 16.8095C0.382347 17.8943 0.628086 18.4917 1.16416 19.4638C1.71811 20.4683 2.1435 20.9768 2.93367 21.8084C3.93356 22.8606 5.85335 24.1087 5.85335 24.1087L12.0909 27.9132Z" fill="#41ADBF"/>
<path d="M14.2158 0L0.192444 8.27245V10.5728L17.976 0H14.2158Z" fill="#FEB449"/>
<path d="M5.81063 0.0438843L0.192444 3.36171V6.06021L10.3671 0.0438843H5.81063Z" fill="#FEB449"/>
<path d="M43.8346 3.71916H47.6477V23.061H44.7464L36.4571 11.2348V23.061H32.644V3.71916H35.5453L43.8346 15.5177V3.71916ZM61.5697 9.24539H65.1341V23.061H61.5697V21.4307C60.5013 22.7755 59 23.4478 57.0658 23.4478C55.2238 23.4478 53.6396 22.7478 52.3133 21.3478C51.0054 19.9294 50.3515 18.1979 50.3515 16.1532C50.3515 14.1085 51.0054 12.3861 52.3133 10.9862C53.6396 9.56775 55.2238 8.85855 57.0658 8.85855C59 8.85855 60.5013 9.53091 61.5697 10.8756V9.24539ZM54.9935 18.9716C55.7119 19.69 56.6237 20.0492 57.729 20.0492C58.8342 20.0492 59.7461 19.69 60.4645 18.9716C61.2013 18.2347 61.5697 17.2953 61.5697 16.1532C61.5697 15.0111 61.2013 14.0808 60.4645 13.3624C59.7461 12.6256 58.8342 12.2572 57.729 12.2572C56.6237 12.2572 55.7119 12.6256 54.9935 13.3624C54.2751 14.0808 53.9159 15.0111 53.9159 16.1532C53.9159 17.2953 54.2751 18.2347 54.9935 18.9716ZM77.457 9.24539H81.3806L76.1307 23.061H72.0689L66.819 9.24539H70.7426L74.086 18.9163L77.457 9.24539ZM84.8678 7.58752C84.2783 7.58752 83.7625 7.37568 83.3204 6.952C82.8967 6.5099 82.6849 5.99412 82.6849 5.40466C82.6849 4.81519 82.8967 4.29941 83.3204 3.85731C83.7625 3.41521 84.2783 3.19416 84.8678 3.19416C85.4756 3.19416 85.9914 3.41521 86.4151 3.85731C86.8572 4.29941 87.0783 4.81519 87.0783 5.40466C87.0783 5.99412 86.8572 6.5099 86.4151 6.952C85.9914 7.37568 85.4756 7.58752 84.8678 7.58752ZM83.0994 23.061V9.24539H86.6638V23.061H83.0994ZM100.398 3.71916H103.963V23.061H100.398V21.4307C99.3484 22.7755 97.8563 23.4478 95.9222 23.4478C94.0617 23.4478 92.4683 22.7478 91.142 21.3478C89.8341 19.9294 89.1802 18.1979 89.1802 16.1532C89.1802 14.1085 89.8341 12.3861 91.142 10.9862C92.4683 9.56775 94.0617 8.85855 95.9222 8.85855C97.8563 8.85855 99.3484 9.53091 100.398 10.8756V3.71916ZM93.8222 18.9716C94.559 19.69 95.4801 20.0492 96.5853 20.0492C97.6906 20.0492 98.6024 19.69 99.3208 18.9716C100.039 18.2347 100.398 17.2953 100.398 16.1532C100.398 15.0111 100.039 14.0808 99.3208 13.3624C98.6024 12.6256 97.6906 12.2572 96.5853 12.2572C95.4801 12.2572 94.559 12.6256 93.8222 13.3624C93.1038 14.0808 92.7446 15.0111 92.7446 16.1532C92.7446 17.2953 93.1038 18.2347 93.8222 18.9716ZM108.991 7.58752C108.402 7.58752 107.886 7.37568 107.444 6.952C107.02 6.5099 106.808 5.99412 106.808 5.40466C106.808 4.81519 107.02 4.29941 107.444 3.85731C107.886 3.41521 108.402 3.19416 108.991 3.19416C109.599 3.19416 110.115 3.41521 110.538 3.85731C110.981 4.29941 111.202 4.81519 111.202 5.40466C111.202 5.99412 110.981 6.5099 110.538 6.952C110.115 7.37568 109.599 7.58752 108.991 7.58752ZM107.223 23.061V9.24539H110.787V23.061H107.223ZM123.168 9.24539H126.732V23.061H123.168V21.5136C122.302 22.8031 120.93 23.4478 119.051 23.4478C117.54 23.4478 116.288 22.9412 115.293 21.9281C114.317 20.915 113.828 19.515 113.828 17.7282V9.24539H117.393V17.2861C117.393 18.2071 117.642 18.9163 118.139 19.4137C118.636 19.8926 119.299 20.1321 120.128 20.1321C121.049 20.1321 121.786 19.8465 122.339 19.2755C122.891 18.7045 123.168 17.8479 123.168 16.7058V9.24539ZM145.277 8.85855C146.861 8.85855 148.123 9.37434 149.062 10.4059C150.02 11.4375 150.499 12.819 150.499 14.5506V23.061H146.935V14.7993C146.935 13.9703 146.732 13.3256 146.327 12.8651C145.922 12.4046 145.351 12.1743 144.614 12.1743C143.803 12.1743 143.168 12.4414 142.707 12.9756C142.265 13.5098 142.044 14.2835 142.044 15.2966V23.061H138.48V14.7993C138.48 13.9703 138.277 13.3256 137.872 12.8651C137.466 12.4046 136.895 12.1743 136.159 12.1743C135.366 12.1743 134.731 12.4414 134.252 12.9756C133.791 13.5098 133.561 14.2835 133.561 15.2966V23.061H129.997V9.24539H133.561V10.7098C134.39 9.47565 135.67 8.85855 137.402 8.85855C139.097 8.85855 140.349 9.5217 141.16 10.848C142.081 9.5217 143.453 8.85855 145.277 8.85855Z" fill="#36454F"/>
</svg>
