<svg width="25" height="25" viewBox="0 0 25 25" fill="none" xmlns="http://www.w3.org/2000/svg">
<g clip-path="url(#clip0_14_47)">
<path d="M12.5 25C12.191 25 11.8889 24.9084 11.6319 24.7367C11.375 24.565 11.1747 24.321 11.0564 24.0355C10.9382 23.7499 10.9072 23.4358 10.9675 23.1327C11.0278 22.8296 11.1766 22.5512 11.3951 22.3326C11.6137 22.1141 11.8921 21.9653 12.1952 21.905C12.4983 21.8447 12.8124 21.8757 13.098 21.9939C13.3835 22.1122 13.6275 22.3125 13.7992 22.5694C13.9709 22.8264 14.0625 23.1285 14.0625 23.4375C14.0625 23.8519 13.8979 24.2493 13.6049 24.5424C13.3118 24.8354 12.9144 25 12.5 25Z" fill="black"/>
<path d="M17.4062 20.3125H7.59375C7.02606 20.3134 6.46501 20.1905 5.94965 19.9524C5.43429 19.7144 4.97701 19.3668 4.60965 18.934C4.24229 18.5012 3.97367 17.9936 3.82251 17.4464C3.67135 16.8992 3.64128 16.3256 3.73438 15.7656L5.29688 6.04688C5.57247 4.35169 6.44217 2.80984 7.7504 1.69712C9.05863 0.584395 10.7201 -0.0266113 12.4375 -0.0266113C14.1549 -0.0266113 15.8164 0.584395 17.1246 1.69712C18.4328 2.80984 19.3025 4.35169 19.5781 6.04688L21.1406 15.7656C21.2242 16.3188 21.1894 16.8833 21.0386 17.422C20.8877 17.9607 20.6243 18.4613 20.2656 18.8906C19.9161 19.3157 19.4806 19.6621 18.9879 19.9071C18.4951 20.1521 17.9561 20.2903 17.4062 20.3125ZM12.5 1.5625C11.1642 1.55753 9.86981 2.02545 8.84599 2.8834C7.82217 3.74135 7.13502 4.93396 6.90625 6.25L5.34375 15.9687C5.28793 16.306 5.30655 16.6514 5.39833 16.9807C5.4901 17.31 5.65279 17.6152 5.875 17.875C6.08093 18.1367 6.3413 18.3505 6.63809 18.5016C6.93487 18.6527 7.26096 18.7375 7.59375 18.75H17.4062C17.7459 18.7523 18.0819 18.6792 18.3899 18.536C18.6979 18.3928 18.9703 18.183 19.1875 17.9219C19.4097 17.6621 19.5724 17.3569 19.6642 17.0276C19.7559 16.6983 19.7746 16.3529 19.7187 16.0156L18.0937 6.25C17.865 4.93396 17.1778 3.74135 16.154 2.8834C15.1302 2.02545 13.8358 1.55753 12.5 1.5625Z" fill="black"/>
</g>
<defs>
<clipPath id="clip0_14_47">
<rect width="25" height="25" fill="white"/>
</clipPath>
</defs>
</svg>
