<svg width="88" height="103" viewBox="0 0 88 103" fill="none" xmlns="http://www.w3.org/2000/svg">
<path d="M50.656 67.2537L74.2591 53.1889V60.9488L44.3511 77.9236V37.6691L88.0005 12.1261V58.8472C88.0005 58.8472 86.9779 65.3858 85.2522 69.1937C83.561 72.9258 82.0954 74.8096 79.4323 77.9236C75.8806 82.0767 73.1024 83.6561 68.7625 86.9768C59.8279 93.8133 44.1895 102.012 44.1895 102.012V94.4134C44.1895 94.4134 57.2869 87.0231 64.8825 81.1569C68.6764 78.2268 71.2102 76.9344 74.2591 73.2353C76.264 70.8028 77.3421 69.3253 78.624 66.4454C79.876 63.6328 80.7256 58.8472 80.7256 58.8472V24.5743L50.656 42.3574V67.2537Z" fill="#FE5C36"/>
<path d="M44.1855 102.007V94.4091L25.7558 83.2542C25.7558 83.2542 18.6148 78.8084 15.0859 74.8477C12.9181 72.4147 11.8576 70.8842 10.236 68.0578C8.81616 65.5832 7.87441 64.1927 7.16433 61.4295C6.19008 57.6384 7.16433 51.4063 7.16433 51.4063L80.56 8.24187L72.9618 4.20026L0.536084 46.8797C0.536084 46.8797 -0.670106 55.877 0.536084 61.4295C1.39727 65.3939 2.29531 67.5769 4.25437 71.1294C6.27876 74.8003 7.83332 76.6586 10.721 79.6976C14.375 83.5432 21.3908 88.1042 21.3908 88.1042L44.1855 102.007Z" fill="#41ADBF"/>
<path d="M51.9527 0L0.705078 30.2313V38.6378L65.6942 0H51.9527Z" fill="#FEB449"/>
<path d="M21.2365 0.16037L0.705078 12.2852V22.1467L37.8879 0.16037H21.2365Z" fill="#FEB449"/>
</svg>
