<svg width="100" height="115" viewBox="0 0 100 115" fill="none" xmlns="http://www.w3.org/2000/svg">
<path d="M57.4878 75.6603L84.0411 59.8374V68.5673L50.3948 87.6638V42.3777L99.5002 13.6419V66.2029C99.5002 66.2029 98.3497 73.5588 96.4084 77.8427C94.5058 82.0413 92.8569 84.1606 89.861 87.6638C85.8654 92.336 82.7398 94.1128 77.8575 97.8487C67.8061 105.54 50.2129 114.763 50.2129 114.763V106.215C50.2129 106.215 64.9475 97.9008 73.4925 91.3013C77.7606 88.005 80.6112 86.551 84.0411 82.3895C86.2966 79.653 87.5095 77.9907 88.9517 74.7509C90.3602 71.5867 91.316 66.2029 91.316 66.2029V27.646L57.4878 47.652V75.6603Z" fill="#FE5C36"/>
<path d="M50.2086 114.758V106.21L29.4752 93.6608C29.4752 93.6608 21.4416 88.6592 17.4716 84.2034C15.0329 81.4663 13.8398 79.7445 12.0154 76.5648C10.4182 73.7809 9.35869 72.2166 8.55985 69.108C7.46383 64.843 8.55985 57.8319 8.55985 57.8319L91.1298 9.27207L82.5818 4.72527L1.10309 52.7395C1.10309 52.7395 -0.253867 62.8614 1.10309 69.108C2.07192 73.5679 3.08222 76.0239 5.28615 80.0203C7.56359 84.1501 9.31247 86.2407 12.561 89.6596C16.6718 93.9858 24.5646 99.1169 24.5646 99.1169L50.2086 114.758Z" fill="#41ADBF"/>
<path d="M58.9465 -7.62939e-06L1.29297 34.0101V43.4674L74.4056 -7.62939e-06H58.9465Z" fill="#FEB449"/>
<path d="M24.3907 0.180412L1.29297 13.8208V24.915L43.1236 0.180412H24.3907Z" fill="#FEB449"/>
</svg>
