<svg width="15" height="15" viewBox="0 0 15 15" fill="none" xmlns="http://www.w3.org/2000/svg">
<g clip-path="url(#clip0_184_147)">
<path d="M7.5 -7.62939e-06C3.36433 -7.62939e-06 0 3.36433 0 7.49999C0 11.6357 3.36433 15 7.5 15C11.6357 15 15 11.6357 15 7.49999C15 3.36433 11.6357 -7.62939e-06 7.5 -7.62939e-06ZM7.5 11.875C7.15496 11.875 6.87504 11.595 6.87504 11.25C6.87504 10.905 7.15496 10.625 7.5 10.625C7.84504 10.625 8.12496 10.905 8.12496 11.25C8.12496 11.595 7.84504 11.875 7.5 11.875ZM8.48934 7.90122C8.26813 8.00307 8.12496 8.22623 8.12496 8.46942V8.75003C8.12496 9.09496 7.84561 9.37499 7.5 9.37499C7.15439 9.37499 6.87504 9.09496 6.87504 8.75003V8.46942C6.87504 7.73997 7.30373 7.0713 7.96566 6.76562C8.60252 6.47254 9.06246 5.69434 9.06246 5.31245C9.06246 4.45129 8.36185 3.74999 7.5 3.74999C6.63815 3.74999 5.93754 4.45129 5.93754 5.31245C5.93754 5.65749 5.65807 5.93753 5.31246 5.93753C4.96685 5.93753 4.6875 5.65749 4.6875 5.31245C4.6875 3.76189 5.94933 2.49995 7.5 2.49995C9.05067 2.49995 10.3125 3.76189 10.3125 5.31245C10.3125 6.15691 9.57996 7.39814 8.48934 7.90122Z" fill="#148092"/>
</g>
<defs>
<clipPath id="clip0_184_147">
<rect width="15" height="15" fill="white"/>
</clipPath>
</defs>
</svg>
