<svg width="22" height="22" viewBox="0 0 22 22" fill="none" xmlns="http://www.w3.org/2000/svg">
<path d="M21.2086 20.1039L15.5375 14.4326C16.7809 12.9418 17.5312 11.0262 17.5312 8.9375C17.5312 4.19883 13.6762 0.34375 8.9375 0.34375C4.19883 0.34375 0.34375 4.19883 0.34375 8.9375C0.34375 13.6762 4.19883 17.5312 8.9375 17.5312C11.0262 17.5312 12.9418 16.7809 14.4326 15.5375L20.1039 21.2088C20.2564 21.3613 20.4564 21.4377 20.6562 21.4377C20.8561 21.4377 21.0561 21.3613 21.2086 21.2088C21.5139 20.9035 21.5139 20.409 21.2086 20.1039ZM1.90625 8.9375C1.90625 5.06055 5.06016 1.90625 8.9375 1.90625C12.8148 1.90625 15.9688 5.06055 15.9688 8.9375C15.9688 12.8145 12.8148 15.9688 8.9375 15.9688C5.06016 15.9688 1.90625 12.8145 1.90625 8.9375Z" fill="#888888"/>
</svg>
