<svg width="20" height="21" viewBox="0 0 20 21" fill="none" xmlns="http://www.w3.org/2000/svg">
<g clip-path="url(#clip0_213_1822)">
<path d="M19.8902 10.2841C19.7117 10.0345 15.4558 4.17969 10.0393 4.17969C4.62243 4.17969 0.288409 10.0345 0.109894 10.2841C-0.0365906 10.488 -0.0365906 10.7626 0.109894 10.9661C0.288409 11.2157 4.62243 17.0704 10.0393 17.0704C15.4558 17.0704 19.7117 11.2157 19.8902 10.9661C20.0367 10.7626 20.0367 10.4879 19.8902 10.2841ZM10.0393 14.7267C7.77794 14.7267 5.85958 12.8864 5.85958 10.625C5.85958 8.36368 7.77794 6.52344 10.0393 6.52344C12.3007 6.52344 14.1409 8.36368 14.1409 10.625C14.1409 12.8864 12.3007 14.7267 10.0393 14.7267Z" fill="#6A716F"/>
<path d="M10.0394 8.86719C9.0699 8.86719 8.20349 9.65586 8.20349 10.625C8.20349 11.5945 9.0699 12.3828 10.0394 12.3828C11.0086 12.3828 11.7973 11.5945 11.7973 10.625C11.7973 9.65586 11.0086 8.86719 10.0394 8.86719Z" fill="#6A716F"/>
</g>
<defs>
<clipPath id="clip0_213_1822">
<rect width="20" height="20" fill="white" transform="translate(0 0.625)"/>
</clipPath>
</defs>
</svg>
