<svg width="69" height="70" viewBox="0 0 69 70" fill="none" xmlns="http://www.w3.org/2000/svg">
<path d="M33.9137 45.0293L49.7172 35.6121V40.8078L29.6922 52.1733V25.2208L58.9179 8.11839V39.4006C58.9179 39.4006 58.2331 43.7786 57.0777 46.3282C55.9454 48.827 54.964 50.0884 53.181 52.1733C50.8029 54.954 48.9427 56.0115 46.0369 58.235C40.0548 62.8123 29.584 68.3016 29.584 68.3016V63.2141C29.584 63.2141 38.3534 58.266 43.4391 54.3382C45.9793 52.3764 47.6758 51.511 49.7172 49.0343C51.0596 47.4056 51.7815 46.4163 52.6398 44.4881C53.478 42.6049 54.0469 39.4006 54.0469 39.4006V16.4531L33.9137 28.3598V45.0293Z" fill="#36454F"/>
<path d="M29.5846 68.3015V63.2141L17.2449 55.7453C17.2449 55.7453 12.4636 52.7686 10.1008 50.1167C8.64939 48.4877 7.93932 47.4629 6.85352 45.5705C5.9029 43.9136 5.27234 42.9826 4.7969 41.1325C4.14459 38.5941 4.7969 34.4214 4.7969 34.4214L53.9393 5.52052L48.8519 2.81444L0.358937 31.3906C0.358937 31.3906 -0.448672 37.4148 0.358937 41.1325C0.935546 43.7868 1.53683 45.2485 2.84853 47.6271C4.20397 50.085 5.24483 51.3292 7.17825 53.364C9.62483 55.9388 14.3223 58.9926 14.3223 58.9926L29.5846 68.3015Z" fill="#36454F"/>
<path d="M34.776 6.10352e-05L0.462891 20.2415V25.8702L43.9766 6.10352e-05H34.776Z" fill="#36454F"/>
<path d="M14.2098 0.108459L0.462891 8.22669V14.8295L25.3588 0.108459H14.2098Z" fill="#36454F"/>
<path d="M53.8017 33.3834L39.375 38.2947C39.682 44.1267 39.0987 53.3353 40.2959 57.3256C41.3088 60.7021 49.9137 67.2504 53.8017 69.9106C56.9735 67.3527 64.9041 62.1963 66.3867 58.8604C68.8423 53.3353 68.6377 44.0244 68.2284 38.2947L53.8017 33.3834Z" fill="#008060"/>
<path d="M46.7422 51.4935L51.0395 56.7116L60.555 46.8892" stroke="white" stroke-width="2.31235" stroke-linecap="round" stroke-linejoin="round"/>
</svg>
