<svg width="20" height="20" viewBox="0 0 20 20" fill="none" xmlns="http://www.w3.org/2000/svg">
<path d="M3.47062 13.6242C3.31062 13.6242 3.15094 13.5633 3.02875 13.4411C2.78469 13.197 2.78469 12.8014 3.02875 12.5573L12.7956 2.79047C13.0394 2.54641 13.4353 2.54641 13.6794 2.79047C13.9234 3.03453 13.9234 3.43016 13.6794 3.67422L3.9125 13.4411C3.79063 13.563 3.63062 13.6242 3.47062 13.6242Z" fill="#006FBB"/>
<path d="M2.50453 18.1251C2.46109 18.1251 2.41703 18.1204 2.37297 18.111C2.03547 18.0385 1.82047 17.7063 1.89297 17.3688L2.85859 12.8679C2.93109 12.5304 3.26484 12.316 3.60078 12.3879C3.93828 12.4604 4.15328 12.7926 4.08078 13.1301L3.11515 17.631C3.05234 17.9245 2.79297 18.1251 2.50453 18.1251Z" fill="#006FBB"/>
<path d="M7.00578 17.1591C6.84578 17.1591 6.68609 17.0981 6.56391 16.9759C6.31984 16.7319 6.31984 16.3362 6.56391 16.0922L16.3308 6.32562C16.5745 6.08156 16.9705 6.08156 17.2145 6.32562C17.4586 6.56969 17.4586 6.96531 17.2145 7.20937L7.44797 16.9759C7.32578 17.0981 7.16578 17.1591 7.00578 17.1591Z" fill="#006FBB"/>
<path d="M2.5035 18.1248C2.21506 18.1248 1.956 17.9242 1.89288 17.6308C1.82069 17.2933 2.03538 16.9611 2.37288 16.8886L6.87381 15.923C7.21163 15.8514 7.54381 16.0658 7.616 16.4029C7.68819 16.7404 7.4735 17.0726 7.136 17.1451L2.63506 18.1108C2.591 18.1204 2.54694 18.1248 2.5035 18.1248Z" fill="#006FBB"/>
<path d="M15.004 9.16024C14.844 9.16024 14.684 9.0993 14.5621 8.97712L11.0268 5.4418C10.7827 5.19774 10.7827 4.80211 11.0268 4.55805C11.2705 4.31398 11.6668 4.31398 11.9105 4.55805L15.4459 8.09337C15.6899 8.33743 15.6899 8.73305 15.4459 8.97712C15.324 9.0993 15.164 9.16024 15.004 9.16024Z" fill="#006FBB"/>
<path d="M16.7722 7.39289C16.6122 7.39289 16.4522 7.33195 16.33 7.20977C16.0859 6.9657 16.0859 6.57008 16.33 6.3257C16.6778 5.97789 16.8694 5.50695 16.8694 5.00008C16.8694 4.4932 16.6778 4.02227 16.33 3.67445C15.9819 3.32633 15.5109 3.13477 15.0041 3.13477C14.4972 3.13477 14.0262 3.32633 13.6784 3.67445C13.4347 3.91852 13.0391 3.91883 12.7944 3.67445C12.5503 3.43039 12.5503 3.03477 12.7944 2.79039C13.3781 2.20633 14.1628 1.88477 15.0041 1.88477C15.845 1.88477 16.63 2.20633 17.2137 2.79039C17.7978 3.37414 18.1194 4.15883 18.1194 5.00008C18.1194 5.84133 17.7978 6.62602 17.2137 7.20977C17.0922 7.33164 16.9322 7.39289 16.7722 7.39289Z" fill="#006FBB"/>
</svg>
