<svg width="20" height="20" viewBox="0 0 20 20" fill="none" xmlns="http://www.w3.org/2000/svg">
<path d="M3.47029 13.624C3.31029 13.624 3.1506 13.563 3.02841 13.4409C2.78435 13.1968 2.78435 12.8012 3.02841 12.5571L12.7953 2.79022C13.039 2.54616 13.435 2.54616 13.679 2.79022C13.9231 3.03429 13.9231 3.42991 13.679 3.67397L3.91216 13.4409C3.79029 13.5627 3.63029 13.624 3.47029 13.624Z" fill="#6A716F"/>
<path d="M2.5052 18.1251C2.46176 18.1251 2.4177 18.1204 2.37364 18.111C2.03614 18.0385 1.82114 17.7063 1.89364 17.3688L2.85926 12.8679C2.93176 12.5304 3.26551 12.316 3.60145 12.3879C3.93895 12.4604 4.15395 12.7926 4.08145 13.1301L3.11583 17.631C3.05301 17.9245 2.79364 18.1251 2.5052 18.1251Z" fill="#6A716F"/>
<path d="M7.00566 17.1593C6.84566 17.1593 6.68597 17.0984 6.56378 16.9762C6.31972 16.7321 6.31972 16.3365 6.56378 16.0924L16.3307 6.32587C16.5744 6.08181 16.9703 6.08181 17.2144 6.32587C17.4585 6.56993 17.4585 6.96556 17.2144 7.20962L7.44785 16.9762C7.32566 17.0984 7.16566 17.1593 7.00566 17.1593Z" fill="#6A716F"/>
<path d="M2.50396 18.1251C2.21552 18.1251 1.95646 17.9244 1.89333 17.631C1.82115 17.2935 2.03583 16.9613 2.37333 16.8888L6.87427 15.9232C7.21208 15.8516 7.54427 16.066 7.61646 16.4032C7.68865 16.7407 7.47396 17.0729 7.13646 17.1454L2.63552 18.111C2.59146 18.1207 2.5474 18.1251 2.50396 18.1251Z" fill="#6A716F"/>
<path d="M15.0047 9.16024C14.8447 9.16024 14.6847 9.0993 14.5629 8.97712L11.0276 5.4418C10.7835 5.19774 10.7835 4.80211 11.0276 4.55805C11.2713 4.31398 11.6676 4.31398 11.9113 4.55805L15.4466 8.09337C15.6907 8.33743 15.6907 8.73305 15.4466 8.97712C15.3247 9.0993 15.1647 9.16024 15.0047 9.16024Z" fill="#6A716F"/>
<path d="M16.7726 7.39289C16.6126 7.39289 16.4526 7.33195 16.3304 7.20977C16.0863 6.9657 16.0863 6.57008 16.3304 6.3257C16.6782 5.97789 16.8698 5.50695 16.8698 5.00008C16.8698 4.4932 16.6782 4.02227 16.3304 3.67445C15.9823 3.32633 15.5113 3.13477 15.0045 3.13477C14.4976 3.13477 14.0266 3.32633 13.6788 3.67445C13.4351 3.91852 13.0395 3.91883 12.7948 3.67445C12.5507 3.43039 12.5507 3.03477 12.7948 2.79039C13.3785 2.20633 14.1632 1.88477 15.0045 1.88477C15.8454 1.88477 16.6304 2.20633 17.2141 2.79039C17.7982 3.37414 18.1198 4.15883 18.1198 5.00008C18.1198 5.84133 17.7982 6.62602 17.2141 7.20977C17.0926 7.33164 16.9326 7.39289 16.7726 7.39289Z" fill="#6A716F"/>
</svg>
