<svg width="25" height="25" viewBox="0 0 25 25" fill="none" xmlns="http://www.w3.org/2000/svg">
<path d="M12.5006 2.49995C12.2707 2.49995 12.084 2.31328 12.084 2.0833V0.41665C12.084 0.18667 12.2707 0 12.5006 0C12.7306 0 12.9173 0.18667 12.9173 0.41665V2.0833C12.9173 2.31328 12.7311 2.49995 12.5006 2.49995Z" fill="#FFAF46"/>
<path d="M8.54078 3.56036C8.3916 3.56036 8.2541 3.48121 8.17954 3.35201L7.34624 1.90914C7.22998 1.7108 7.29668 1.45538 7.49497 1.33917C7.69326 1.22296 7.94873 1.28961 8.06494 1.4879C8.06577 1.48956 8.0666 1.49122 8.06787 1.49249L8.90118 2.93536C9.01617 3.13453 8.94786 3.38951 8.74869 3.5045C8.68579 3.54122 8.61412 3.56036 8.54078 3.56036Z" fill="#FFAF46"/>
<path d="M5.64325 6.45823C5.56992 6.45823 5.49824 6.43904 5.43491 6.40242L3.99203 5.56912C3.79203 5.45535 3.72201 5.2012 3.83578 5.00081C3.94955 4.80081 4.2037 4.73079 4.40409 4.84456C4.40575 4.84539 4.40742 4.84622 4.40868 4.84749L5.85156 5.68079C6.05073 5.79578 6.11904 6.05076 6.00405 6.24993C5.92992 6.37869 5.79242 6.45823 5.64325 6.45823Z" fill="#FFAF46"/>
<path d="M4.5833 10.4166H2.91665C2.68667 10.4166 2.5 10.2299 2.5 9.9999C2.5 9.76992 2.68667 9.58325 2.91665 9.58325H4.5833C4.81328 9.58325 4.99995 9.76992 4.99995 9.9999C4.99995 10.2299 4.81372 10.4166 4.5833 10.4166Z" fill="#FFAF46"/>
<path d="M4.20181 15.2081C3.97183 15.2081 3.78516 15.0215 3.78516 14.7915C3.78516 14.6428 3.86475 14.5053 3.99351 14.4307L5.43638 13.5973C5.63472 13.4811 5.89014 13.5473 6.00635 13.7461C6.12261 13.9444 6.05635 14.1998 5.85762 14.3161C5.85596 14.3169 5.8543 14.3177 5.85264 14.319L4.40977 15.1523C4.34678 15.189 4.27515 15.2081 4.20181 15.2081Z" fill="#FFAF46"/>
<path d="M20.7995 15.2081C20.7261 15.2081 20.6545 15.189 20.5911 15.1523L19.1483 14.319C18.9483 14.2053 18.8783 13.9511 18.992 13.7507C19.1058 13.5507 19.3599 13.4807 19.5603 13.5945C19.562 13.5953 19.5636 13.5961 19.5653 13.5974L21.0082 14.4307C21.2073 14.5457 21.2757 14.8007 21.1607 14.9998C21.0862 15.1286 20.9487 15.2081 20.7995 15.2081Z" fill="#FFAF46"/>
<path d="M22.0833 10.4166H20.4166C20.1867 10.4166 20 10.2299 20 9.9999C20 9.76992 20.1867 9.58325 20.4166 9.58325H22.0833C22.3133 9.58325 22.5 9.76992 22.5 9.9999C22.5 10.2299 22.3137 10.4166 22.0833 10.4166Z" fill="#FFAF46"/>
<path d="M19.3561 6.45824C19.1261 6.45824 18.9395 6.27157 18.9395 6.04159C18.9395 5.89286 19.019 5.75536 19.1478 5.68075L20.5907 4.84744C20.789 4.73118 21.0444 4.79788 21.1607 4.99617C21.2769 5.19451 21.2102 5.44994 21.0119 5.56615C21.0103 5.56698 21.0086 5.56781 21.0073 5.56908L19.5645 6.40238C19.5011 6.4391 19.4294 6.45824 19.3561 6.45824Z" fill="#FFAF46"/>
<path d="M16.4573 3.56036C16.2273 3.55992 16.0406 3.3733 16.041 3.14327C16.041 3.07037 16.0602 2.99869 16.0968 2.93536L16.9301 1.49249C17.0439 1.29249 17.298 1.22247 17.4984 1.33624C17.6984 1.45001 17.7684 1.70416 17.6547 1.90455C17.6538 1.90621 17.653 1.90787 17.6517 1.90953L16.8185 3.3524C16.7443 3.48121 16.6064 3.56036 16.4573 3.56036Z" fill="#FFAF46"/>
<path d="M14.5832 8.33325C13.6628 8.33325 12.9166 9.07949 12.9166 9.99991V10.8332H12.0833V9.99991C12.0833 9.07949 11.337 8.33325 10.4166 8.33325C9.49619 8.33325 8.75 9.07949 8.75 9.99991C8.75 10.9203 9.49624 11.6666 10.4167 11.6666H11.25V16.2498C11.25 16.4798 11.4366 16.6665 11.6666 16.6665C11.8966 16.6665 12.0833 16.4798 12.0833 16.2498V11.6666H12.9166V16.2498C12.9166 16.4798 13.1032 16.6665 13.3332 16.6665C13.5632 16.6665 13.7499 16.4798 13.7499 16.2498V11.6666H14.5832C15.5036 11.6666 16.2498 10.9203 16.2498 9.99991C16.2498 9.07949 15.5036 8.33325 14.5832 8.33325ZM9.5833 9.99991C9.5833 9.5395 9.9562 9.1666 10.4166 9.1666C10.877 9.1666 11.2499 9.5395 11.2499 9.99991V10.8332H10.4166C9.95664 10.8332 9.5833 10.4603 9.5833 9.99991ZM14.5832 10.8332H13.7499V9.99991C13.7499 9.5395 14.1228 9.1666 14.5832 9.1666C15.0436 9.1666 15.4165 9.5395 15.4165 9.99991C15.4166 10.4603 15.0437 10.8332 14.5832 10.8332Z" fill="#FFAF46"/>
<path d="M12.8243 3.34122C9.14679 3.16456 6.02226 6.00242 5.8456 9.68032C5.74433 11.7861 6.64517 13.8157 8.27472 15.1532C8.56847 15.3831 8.74303 15.7331 8.75055 16.106V17.0831C8.75265 17.611 9.08639 18.0806 9.58386 18.2564V18.7497C9.58513 19.0581 9.70095 19.3551 9.90886 19.583C9.47556 20.0543 9.47556 20.7784 9.90886 21.2497C9.44553 21.7576 9.48176 22.5446 9.98967 23.008C10.2205 23.2184 10.5218 23.3342 10.8338 23.333C11.058 23.3388 11.2447 23.1617 11.2505 22.9376C11.2526 22.8501 11.2267 22.7642 11.1763 22.6926C11.163 22.6671 11.1475 22.643 11.1296 22.6205C11.0954 22.5892 11.0563 22.5634 11.0138 22.5447C11.0017 22.5384 10.9896 22.5334 10.9771 22.5284C10.935 22.513 10.8909 22.5042 10.8459 22.5021C10.8417 22.5021 10.838 22.4996 10.8338 22.4996C10.6038 22.4996 10.4172 22.313 10.4172 22.083C10.4172 21.853 10.6038 21.6663 10.8338 21.6663H12.5005C12.7305 21.6663 12.9171 21.4797 12.9171 21.2497C12.9171 21.0197 12.7305 20.833 12.5005 20.833H10.8338C10.6038 20.833 10.4172 20.6463 10.4172 20.4164C10.4172 20.1864 10.6038 19.9997 10.8338 19.9997H12.5005C12.7305 19.9997 12.9171 19.813 12.9171 19.5831C12.9171 19.3531 12.7305 19.1664 12.5005 19.1664H10.8338C10.6038 19.1664 10.4172 18.9797 10.4172 18.7498V18.3331H12.5005C12.7305 18.3331 12.9171 18.1464 12.9171 17.9165C12.9171 17.6865 12.7305 17.4998 12.5005 17.4998H10.0005C9.77053 17.4998 9.58386 17.3131 9.58386 17.0831V16.1061C9.57717 15.4832 9.29011 14.8961 8.8026 14.5082C6.31387 12.4628 5.95429 8.78657 7.99972 6.29783C9.1697 4.87409 10.9439 4.08703 12.7847 4.17492C15.8634 4.35827 18.2813 6.88114 18.3338 9.96445C18.3488 11.7378 17.5513 13.4207 16.1692 14.5323C15.6855 14.931 15.4088 15.5277 15.4171 16.1544V17.0831C15.4171 17.3131 15.2305 17.4997 15.0005 17.4997H13.7505C13.5205 17.4997 13.3338 17.6864 13.3338 17.9164C13.3338 18.1464 13.5205 18.3331 13.7505 18.3331H14.5838V18.7497C14.5838 18.9797 14.3971 19.1664 14.1671 19.1664H13.7505C13.5205 19.1664 13.3338 19.353 13.3338 19.583C13.3338 19.813 13.5205 19.9997 13.7505 19.9997H14.1671C14.3971 19.9997 14.5838 20.1863 14.5838 20.4163C14.5838 20.6463 14.3971 20.833 14.1671 20.833H13.7505C13.5205 20.833 13.3338 21.0196 13.3338 21.2496C13.3338 21.4796 13.5205 21.6663 13.7505 21.6663H14.1671C14.3971 21.6663 14.5838 21.8529 14.5838 22.0829C14.5838 22.3129 14.3971 22.4996 14.1671 22.4996H12.0838C11.8538 22.4996 11.6672 22.6863 11.6672 22.9162C11.6672 23.1462 11.8538 23.3329 12.0838 23.3329H13.6792C13.4493 23.9837 12.7351 24.325 12.0843 24.095C11.8851 24.0245 11.7068 23.9045 11.5663 23.7466C11.4134 23.5745 11.1501 23.5595 10.978 23.7124C10.8059 23.8654 10.7909 24.1287 10.9438 24.3008C11.7059 25.1595 13.0196 25.2378 13.8784 24.4758C14.233 24.1612 14.4696 23.7345 14.5483 23.267C15.2008 23.0633 15.5646 22.3687 15.3604 21.7162C15.3063 21.5428 15.2146 21.3837 15.0921 21.2495C15.5254 20.7783 15.5254 20.0541 15.0921 19.5829C15.3 19.3549 15.4158 19.0579 15.4171 18.7496V18.2564C15.9146 18.0806 16.2484 17.611 16.2504 17.0831V16.1544C16.245 15.7803 16.407 15.4228 16.6925 15.1807C18.2729 13.9103 19.185 11.9861 19.1671 9.95825C19.1071 6.43411 16.343 3.55036 12.8243 3.34122Z" fill="#231F20"/>
</svg>
