<svg width="18" height="18" viewBox="0 0 18 18" fill="none" xmlns="http://www.w3.org/2000/svg">
<g clip-path="url(#clip0_213_1816)">
<path d="M17.4131 9.58725H6.06517C5.74117 9.58725 5.47821 9.32429 5.47821 9.00029C5.47821 8.67629 5.74117 8.41333 6.06517 8.41333H17.4131C17.7371 8.41333 18.0001 8.67629 18.0001 9.00029C18.0001 9.32429 17.7371 9.58725 17.4131 9.58725Z" fill="#FE5C36"/>
<path d="M9.1958 12.7175C9.04548 12.7175 8.8953 12.6605 8.78095 12.5454L5.65057 9.415C5.42129 9.18558 5.42129 8.81386 5.65057 8.58458L8.78095 5.45419C9.01023 5.22491 9.38195 5.22491 9.61137 5.45419C9.84065 5.68347 9.84065 6.05519 9.61137 6.28447L6.8957 9.00015L9.61137 11.7158C9.84065 11.9451 9.84065 12.3168 9.61137 12.5461C9.4963 12.6605 9.34598 12.7175 9.1958 12.7175Z" fill="#FE5C36"/>
<path d="M8.60874 17.6091C3.86222 17.6091 0 13.7469 0 9.00035C0 4.25382 3.86222 0.391602 8.60874 0.391602C12.1703 0.391602 15.3149 2.53437 16.6211 5.85119C16.74 6.1524 16.5913 6.49288 16.2901 6.61254C15.9887 6.73004 15.6482 6.58359 15.5286 6.2808C14.4008 3.41638 11.6844 1.56551 8.60874 1.56551C4.50936 1.56551 1.17391 4.90111 1.17391 9.00035C1.17391 13.0996 4.50936 16.4352 8.60874 16.4352C11.6844 16.4352 14.4008 14.5843 15.5286 11.7208C15.6475 11.4178 15.988 11.2715 16.2901 11.3889C16.5913 11.5078 16.74 11.849 16.6211 12.1504C15.3149 15.4663 12.1703 17.6091 8.60874 17.6091Z" fill="#FE5C36"/>
</g>
<defs>
<clipPath id="clip0_213_1816">
<rect width="18" height="18" fill="white"/>
</clipPath>
</defs>
</svg>
