<svg width="32" height="32" viewBox="0 0 32 32" fill="none" xmlns="http://www.w3.org/2000/svg">
<g clip-path="url(#clip0_188_498)">
<path d="M7.1843 21.7092H9.01491V25.3223H7.1843V21.7092Z" fill="white"/>
<path d="M9.01486 27.3592C8.99263 26.8632 8.61272 26.4438 8.09955 26.4438C7.62077 26.4438 7.16208 26.8649 7.18424 27.3592C7.20647 27.855 7.58639 28.2745 8.09955 28.2745C8.57834 28.2745 9.03703 27.8535 9.01486 27.3592Z" fill="white"/>
<path d="M30.6435 7.60991C30.6435 3.61572 27.394 0.366211 23.3998 0.366211H6.41418V18.3618C3.50928 19.1122 1.35713 21.7551 1.35713 24.8911C1.35713 28.609 4.38191 31.6338 8.09982 31.6338C8.11552 31.6338 8.13109 31.6333 8.14678 31.6332H30.6435V7.60991ZM28.7361 6.70083C27.9538 6.11493 26.9831 5.76751 25.9327 5.76751H25.2175V5.05226C25.2175 4.01218 24.8764 3.05052 24.3009 2.27225C26.5624 2.65284 28.3523 4.4404 28.7361 6.70083ZM3.18781 24.8911C3.18781 22.1826 5.39133 19.9791 8.09988 19.9791C10.8084 19.9791 13.0119 22.1826 13.0119 24.8911C13.0119 27.5917 10.8211 29.7898 8.12339 29.8026H8.09988V29.8032C5.39133 29.8032 3.18781 27.5997 3.18781 24.8911ZM12.7144 29.8026C14.0235 28.5719 14.8425 26.8254 14.8425 24.8911C14.8425 24.5905 14.8224 24.2944 14.7841 24.0041H24.3275V22.1735H14.2699C13.9712 21.498 13.5649 20.8804 13.0727 20.3426H24.3275V18.512H12.6384V19.909C11.4728 18.8463 9.93423 18.1862 8.2448 18.1503V2.19683H20.5313C22.1059 2.19683 23.3868 3.47777 23.3868 5.05226V7.59807H25.9326C27.5071 7.59807 28.8127 8.879 28.8127 10.4536L28.8128 29.8026H12.7144Z" fill="white"/>
<path d="M12.6381 7.52747H18.8083V9.35809H12.6381V7.52747Z" fill="white"/>
<path d="M12.6381 11.1895H24.3271V13.0201H12.6381V11.1895Z" fill="white"/>
<path d="M12.6381 14.8505H24.3271V16.6811H12.6381V14.8505Z" fill="white"/>
</g>
<defs>
<clipPath id="clip0_188_498">
<rect width="31.2676" height="31.2676" fill="white" transform="translate(0.366119 0.366089)"/>
</clipPath>
</defs>
</svg>
