<svg width="30" height="30" viewBox="0 0 30 30" fill="none" xmlns="http://www.w3.org/2000/svg">
<path d="M10.7438 6.59911L14.302 3.0061V15.9131C14.302 16.2984 14.6143 16.6107 14.9997 16.6107C15.385 16.6107 15.6973 16.2984 15.6973 15.9131V3.00603L19.2555 6.59904C19.5391 6.83293 19.9487 6.83293 20.2323 6.59904C20.5025 6.31594 20.5025 5.87052 20.2323 5.58741L15.4881 0.80831C15.21 0.559594 14.7894 0.559594 14.5113 0.80831L9.76712 5.58741C9.4969 5.87052 9.4969 6.31594 9.76712 6.59904C10.0451 6.84782 10.4657 6.84782 10.7438 6.59911Z" fill="#888888"/>
<path d="M29.8954 17.0642L25.9535 8.55251C25.8477 8.29398 25.6042 8.11811 25.3256 8.09901H21.9768C21.5914 8.09901 21.2791 8.41136 21.2791 8.79669C21.2791 9.18202 21.5914 9.49437 21.9768 9.49437H24.8721L28.1163 16.8199H24.1396C22.3365 16.811 20.6967 17.8632 19.9535 19.506C19.4152 20.6359 18.2748 21.3554 17.0233 21.3549H12.9767C11.7251 21.3554 10.5849 20.6359 10.0465 19.506C9.30328 17.8632 7.66349 16.811 5.86044 16.8199H1.95348L5.79066 9.49437H8.02324C8.40857 9.49437 8.72092 9.18202 8.72092 8.79669C8.72092 8.41136 8.40857 8.09901 8.02324 8.09901H5.37208C5.10387 8.11891 4.8657 8.27769 4.74418 8.51759L0.139549 16.9944C0.0634979 17.0966 0.0154238 17.2168 0 17.3432V26.0642C0 27.9828 1.67445 29.3782 3.59301 29.3782H26.407C28.3256 29.3782 30 27.9828 30 26.0642V17.3433C29.9808 17.2451 29.9454 17.1508 29.8954 17.0642ZM28.6046 26.0642C28.6046 27.2154 27.5582 27.9828 26.407 27.9828H3.59301C2.44183 27.9828 1.39535 27.2154 1.39535 26.0642V18.2153H5.86044C7.11203 18.2148 8.25233 18.9343 8.79069 20.0642C9.5339 21.707 11.1737 22.7592 12.9767 22.7503H17.0233C18.8263 22.7592 20.4661 21.707 21.2093 20.0642C21.7476 18.9343 22.888 18.2148 24.1396 18.2153H28.6046V26.0642Z" fill="#888888"/>
</svg>
